<?xml version="1.0" encoding="UTF-8"?>
<svg id="Capa_6" data-name="Capa 6" xmlns="http://www.w3.org/2000/svg" viewBox="0 0 340.54 323.7">
  <defs>
    <style>
      .cls-1 {
        fill: #96368b;
      }
    </style>
  </defs>
  <path class="cls-1" d="M325.28,284.91c-30.87-2.03-63.47-3.48-96.92-4.31-10.31-.25-20.62-.45-30.92-.58-18.09-.21-36.44-.21-54.54-.02-10.31.12-20.62.31-30.92.56-33.45.81-66.06,2.24-96.91,4.25h-.17c-1.87.26-3.34,1.78-3.41,3.69-.42,10.34-.9,20.67-1.46,31-.06,1.12.36,2.2,1.16,2.99.8.79,1.91,1.2,3,1.12l.88-.06c30.85-2.01,63.46-3.44,96.91-4.25,10.31-.25,20.62-.45,30.92-.56,18.09-.2,36.45-.19,54.54.02,10.31.12,20.62.32,30.92.58,33.68.83,66.51,2.3,97.57,4.35.07,0,.15,0,.22,0,1.04,0,2.04-.48,2.79-1.21.8-.79,1.22-1.96,1.16-3.08-.55-10.27-1.03-20.55-1.45-30.83-.08-1.9-1.52-3.41-3.37-3.67Z"/>
  <path class="cls-1" d="M294.37,99.2c2.37.48,4.58-1.33,4.59-3.75v-2.57s.02-17.05.02-17.05c0-1.04-.41-2.03-1.15-2.77s-1.73-1.15-2.77-1.15h-43.32c-9.05.07-8.25,8.15-6.85,13.24.67,2.44,2.6,4.32,5.07,4.88,9.71,2.18,34.21,7.12,44.41,9.17Z"/>
  <path class="cls-1" d="M340.43,128.51c-.09-3.99-.18-8.12-.05-12.02.12-3.59-1.92-6.87-5.24-8.24-9.52-3.95-21.69-9.12-36.18-15.37l-47.23-20.96c-27.59-12.48-52.89-24.43-75.23-35.5l-1.58-.77c-2.94-1.44-6.38-1.4-9.33.03-.13.06-.27.13-.4.19l-2.98,1.45C119.01,58.74,60.09,85.27,4.63,108.26c-2.88,1.19-4.68,3.99-4.57,7.13.15,4.43.08,9.04.02,13.51-.06,4.09-.12,8.18-.03,12.21.06,2.48,1.32,4.76,3.38,6.11,1.22.8,2.63,1.21,4.05,1.21.95,0,1.91-.18,2.82-.56,53.37-21.86,110.92-47.45,155.09-68.94,4.88-1.88,5-1.81,9.81,0,46.68,22.8,105.01,48.83,153.41,68.68,2.62,1.08,5.6.79,7.96-.75,2.39-1.56,3.86-4.21,3.93-7.09.09-3.7,0-7.48-.07-11.26Z"/>
  <path class="cls-1" d="M290.3,54.15c1.56,0,2.19-1.9,1-2.91-2.69-2.27-4.39-5.65-4.39-9.46,0-2.72.89-5.23,2.37-7.28,2.27-3.16,5.96-5.24,10.16-5.24,3.13,0,5.95,1.19,8.14,3.08.33.34.68.65,1.03.97.08.09.15.19.23.28,0-.03,0-.06,0-.09.52.46,1.04.93,1.61,1.33,4.31,3.02,9.91,4.33,15.86,2.76,6.38-1.68,11.6-6.9,13.22-13.29,3.19-12.57-6.22-23.84-18.27-23.84-3.61,0-21.24-1.21-25.71.3-6.08,1.53-10.99,5.97-13.13,11.8-.48,1.3-.79,2.67-1,4.07-.95,6.32-6.24,10.43-12.57,11.32-.04,0-.08.01-.14.02-.64-.07-1.27-.19-1.93-.19-.59,0-1.15.09-1.71.17-.29-.03-.52-.03-.55.06-9.36,1.13-16.64,9.01-16.64,18.67,0,2.66.56,5.18,1.55,7.48h40.87Z"/>
  <path class="cls-1" d="M122.07,232.71c-18.89,3.83-34.89-24.17-26.89-32.17,16-20,16,12,26.96,17.1,4.11,4.86,4.07,11.61-.07,15.07Z"/>
  <path class="cls-1" d="M168.8,109.15c.76-8.61-4.73-12.39-8.89-11.54-4.91,1.01-8.89,5.17-8.89,11.54v55.88c0,7,3.97,8.84,8.86,8.79.06,0,.12,0,.18,0,6.56,0,8.74-3.96,8.74-8.79v-55.88Z"/>
  <path class="cls-1" d="M196.52,118.97c.63-6.34-1.92-10.95-7.69-12.37-5.48-1.34-9.36,4.26-9.99,10.6l-4.74,47.33c.44,4.95,3,9.09,7.8,9.62.06,0,.12.01.18.02,4.86.54,9.31-1.25,9.7-7.87l4.74-47.33Z"/>
  <path class="cls-1" d="M221.77,130.7c.73-6.33-1.06-9.82-7.5-12.48-4.53-1.87-9.42,4.11-10.15,10.44l-4.26,36.9c-1.28,6.38,2.87,9.13,7.66,9.74.06,0,.12.01.18.02,4.85.61,9.26-2.86,9.82-7.72l4.26-36.9Z"/>
  <path class="cls-1" d="M140.77,128.65c-.74-6.33-4.66-12.41-10.17-10.42-3.95,1.42-8.22,6.17-7.48,12.5l4.34,36.89c.56,4.79,4.89,8.23,9.69,7.72.06,0,.12-.01.18-.02,4.86-.52,8.74-2.77,7.78-9.77l-4.34-36.89Z"/>
  <path class="cls-1" d="M214.75,191.69c.18-17.27-47.15-11.23-65.83-11.93-26.68-.99-13.66,9.72-14.83,60.44-.22,9.41,13.74,15.17,13.93,24.34-1.3,13.41-2.72,52.94,21.29,23.5-10.02,12.28,27.1,16.69,26.95,1.12,0,0-.41-19.85-.41-19.85.37-11.36,13.42-13.45,14.43-26.15,2.93-36.83,4.72-47.5,4.47-51.47Z"/>
</svg>