<svg width="100" height="108" viewBox="0 0 100 108" fill="none" xmlns="http://www.w3.org/2000/svg">
<g clip-path="url(#clip0_28_11)">
<path d="M50.095 108C77.5224 108 99.7567 85.8135 99.7567 58.445C99.7567 31.0765 77.5224 8.88989 50.095 8.88989C22.6677 8.88989 0.433411 31.0765 0.433411 58.445C0.433411 85.8135 22.6677 108 50.095 108Z" fill="#EE9128"/>
<path d="M49.9628 101.41C77.3902 101.41 99.6245 79.2239 99.6245 51.8554C99.6245 24.4869 77.3902 2.30035 49.9628 2.30035C22.5355 2.30035 0.301208 24.4869 0.301208 51.8554C0.301208 79.2239 22.5355 101.41 49.9628 101.41Z" fill="#FFFDEA" stroke="#EE9128" stroke-miterlimit="10"/>
<path d="M61.0146 52.7747C61.0507 51.0988 61.1049 49.1887 61.159 47.5128C61.1651 47.2846 61.1049 47.0563 60.9965 46.8581C60.9423 46.762 60.8761 46.6659 60.7979 46.5878C60.5571 46.3415 60.226 46.2094 59.8709 46.2154C58.1914 46.2575 56.5119 46.2815 54.8385 46.3055C51.5698 46.3475 48.2229 46.3476 44.8881 46.3175C43.2086 46.2995 41.5352 46.2815 39.8557 46.2454C39.5066 46.2454 39.1755 46.3776 38.9287 46.6179C38.8504 46.6959 38.7902 46.786 38.7361 46.8821C38.6217 47.0804 38.5615 47.3086 38.5675 47.5429C38.6277 49.2187 38.6819 51.1289 38.718 52.8047C38.7662 54.9191 38.7902 57.0274 38.8083 59.1298C38.8384 62.7818 38.8264 68.1037 38.7601 71.6537H39.2718C41.1439 71.5996 43.016 71.5696 44.8881 71.5456C45.2252 71.5456 45.472 71.5456 45.8091 71.5456V71.5335C45.8512 69.239 45.8693 65.1845 45.8693 62.8118C45.8693 61.5384 45.8693 60.265 45.8572 58.9916C45.8753 57.1295 45.8753 55.2434 45.8633 53.3573C48.548 53.3814 51.2388 53.3754 53.8874 53.3513C53.8814 55.1834 53.8814 57.0094 53.8934 58.8174C53.8814 60.1569 53.8814 61.4904 53.8814 62.8239C53.8814 65.1965 53.9054 69.257 53.9476 71.5456V71.5576C54.2425 71.5576 54.4954 71.5576 54.7903 71.5576C56.6624 71.5816 58.5345 71.6176 60.4066 71.6597C60.5992 71.6597 60.7979 71.6597 60.9905 71.6597C60.9243 68.0617 60.9122 62.6917 60.9363 58.9856C60.9544 56.9193 60.9785 54.853 61.0206 52.7747H61.0146Z" fill="#EE9128"/>
<path d="M77.9958 70.7346C72.3916 70.3682 66.4683 70.1039 60.3945 69.9537C58.5225 69.9057 56.6504 69.8696 54.7783 69.8516C51.4916 69.8156 48.1627 69.8156 44.876 69.8516C43.0039 69.8756 41.1319 69.9057 39.2598 69.9537C33.186 70.0979 27.2627 70.3622 21.6585 70.7226H21.6284C21.2853 70.7706 21.0204 71.0469 21.0084 71.3893C20.9301 73.2634 20.8458 75.1375 20.7435 77.0056C20.7315 77.2098 20.8097 77.402 20.9542 77.5462C21.0986 77.6903 21.3033 77.7624 21.502 77.7504L21.6645 77.7384C27.2687 77.372 33.192 77.1137 39.2658 76.9695C41.1379 76.9275 43.01 76.8914 44.8821 76.8674C48.1688 76.8314 51.5036 76.8314 54.7843 76.8674C56.6564 76.8914 58.5285 76.9275 60.4006 76.9695C66.5165 77.1197 72.4819 77.384 78.1222 77.7564C78.1343 77.7564 78.1463 77.7564 78.1644 77.7564C78.351 77.7564 78.5376 77.6723 78.67 77.5342C78.8145 77.39 78.8927 77.1798 78.8807 76.9755C78.7784 75.1135 78.6941 73.2514 78.6159 71.3893C78.6038 71.0469 78.339 70.7706 78.0019 70.7226L77.9958 70.7346Z" fill="#EE9128"/>
<path d="M72.3796 37.0792C72.807 37.1633 73.2103 36.8389 73.2103 36.4004V35.9319V32.8385C73.2103 32.6523 73.138 32.4721 72.9996 32.3399C72.8611 32.2078 72.6866 32.1297 72.5 32.1297H64.6323C62.989 32.1417 63.1335 33.6073 63.3863 34.5324C63.5067 34.9769 63.8558 35.3132 64.3073 35.4153C66.071 35.8118 70.5195 36.7068 72.3735 37.0792H72.3796Z" fill="#EE9128"/>
<path d="M80.7468 42.3891C80.7287 41.6683 80.7167 40.9175 80.7408 40.2087C80.7649 39.56 80.3916 38.9653 79.7897 38.713C78.0621 37.9982 75.8529 37.0612 73.2163 35.9259L64.6384 32.1297C59.6301 29.8652 55.0311 27.7028 50.9739 25.6966L50.6849 25.5584C50.1492 25.3001 49.5292 25.3061 48.9934 25.5584C48.9694 25.5704 48.9453 25.5824 48.9212 25.5945L48.3794 25.8587C40.5299 29.7391 29.8271 34.5504 19.7563 38.713C19.2326 38.9293 18.9075 39.4338 18.9256 40.0045C18.9557 40.8094 18.9376 41.6443 18.9256 42.4492C18.9135 43.188 18.9015 43.9328 18.9256 44.6596C18.9376 45.1101 19.1664 45.5246 19.5396 45.7649C19.7623 45.909 20.0151 45.9811 20.274 45.9811C20.4485 45.9811 20.6231 45.9451 20.7856 45.879C30.4772 41.9146 40.9272 37.2774 48.9513 33.3851C49.8362 33.0427 49.8603 33.0547 50.7331 33.3851C59.2087 37.5177 69.8032 42.2329 78.5918 45.8309C79.0673 46.0232 79.6091 45.9751 80.0365 45.6928C80.4699 45.4105 80.7348 44.9299 80.7468 44.4074C80.7649 43.7346 80.7468 43.0498 80.7348 42.3651L80.7468 42.3891Z" fill="#EE9128"/>
<path d="M71.6452 28.9162C71.9281 28.9162 72.0425 28.5738 71.8257 28.3876C71.3382 27.9731 71.0312 27.3664 71.0312 26.6757C71.0312 26.1831 71.1937 25.7266 71.4586 25.3542C71.8739 24.7836 72.5421 24.4051 73.3005 24.4051C73.8664 24.4051 74.3781 24.6214 74.7814 24.9638C74.8416 25.0238 74.9018 25.0839 74.968 25.138C74.986 25.156 74.9981 25.174 75.0101 25.192C75.0101 25.192 75.0101 25.18 75.0101 25.174C75.1064 25.2581 75.1967 25.3422 75.3051 25.4143C76.0876 25.9609 77.1049 26.2011 78.1885 25.9128C79.3442 25.6065 80.2953 24.6634 80.5903 23.5041C81.1682 21.2276 79.4586 19.1853 77.2735 19.1853C76.6173 19.1853 73.4149 18.9691 72.6023 19.2394C71.5007 19.5157 70.6038 20.3206 70.2185 21.3778C70.1342 21.612 70.074 21.8643 70.0379 22.1166C69.8634 23.2639 68.9062 24.0087 67.7565 24.1709C67.7505 24.1709 67.7445 24.1709 67.7324 24.1709C67.6181 24.1589 67.5037 24.1348 67.3833 24.1348C67.2749 24.1348 67.1726 24.1529 67.0703 24.1649C67.0161 24.1649 66.974 24.1649 66.9679 24.1769C65.2704 24.3811 63.9461 25.8107 63.9461 27.5586C63.9461 28.0392 64.0484 28.4957 64.229 28.9162H71.6512H71.6452Z" fill="#EE9128"/>
</g>
<defs>
<clipPath id="clip0_28_11">
<rect width="99.9252" height="108" fill="white"/>
</clipPath>
</defs>
</svg>
