<?xml version="1.0" encoding="UTF-8"?>
<svg id="Capa_4" data-name="Capa 4" xmlns="http://www.w3.org/2000/svg" viewBox="0 0 340.54 323.7">
  <defs>
    <style>
      .cls-1 {
        fill: #95c23d;
      }
    </style>
  </defs>
  <path class="cls-1" d="M169.74,108.65c-.13-.73-1.2-.81-1.75-.32l-23.12,20.11c-6.9,5.97-12.57,12.69-17.83,19.93-15.03,21.4-26.38,49.78-17.6,76.54,4.87,14.62,18.36,26.6,33.81,28.46,12.33,1.61,27.11-2.15,33.9-13.4.03-.04.05-.09.07-.13,2.84-5.63,5.38-14.33,3.41-21.33-3.42-10.81-13.26-16.64-18.09-26.34-.56-1.12-2.22-.73-2.16.51.17,3.61,1.54,10.01,6.61,20.92,3.41,7.34-1.15,12.52-8.5,13.09-10.9.08-17.69-7.4-19.67-16.03-2.24-9.78-1.57-17.98,1.21-28.48,2.14-8.06,13.24-26.77,17.2-31.16.46-.51,1.26-.51,1.7.03,3.28,4,10.65,11.92,15.02,16.71,9.63,10.31,17.47,22.06,21.25,35.32,7.22,28.17-4.19,57.37-17.9,81.99,0,0,28.8,5.05,28.8,5.05,22.93-29.8,31.9-72.06,11.79-107.14-18.32-31.95-45.64-60.28-48.13-74.32Z"/>
  <path class="cls-1" d="M325.28,284.91c-30.87-2.03-63.47-3.48-96.92-4.31-10.31-.25-20.62-.45-30.92-.58-18.09-.21-36.44-.21-54.54-.02-10.31.12-20.62.31-30.92.56-33.45.81-66.06,2.24-96.91,4.25h-.17c-1.87.26-3.34,1.78-3.41,3.69-.42,10.34-.9,20.67-1.46,31-.06,1.12.36,2.2,1.16,2.99.8.79,1.91,1.2,3,1.12l.88-.06c30.85-2.01,63.46-3.44,96.91-4.25,10.31-.25,20.62-.45,30.92-.56,18.09-.2,36.45-.19,54.54.02,10.31.12,20.62.32,30.92.58,33.68.83,66.51,2.3,97.57,4.35.07,0,.15,0,.22,0,1.04,0,2.04-.48,2.79-1.21.8-.79,1.22-1.96,1.16-3.08-.55-10.27-1.03-20.55-1.45-30.83-.08-1.9-1.52-3.41-3.37-3.67Z"/>
  <path class="cls-1" d="M294.37,99.2c2.37.48,4.58-1.33,4.59-3.75v-2.57s.02-17.05.02-17.05c0-1.04-.41-2.03-1.15-2.77s-1.73-1.15-2.77-1.15h-43.32c-9.05.07-8.25,8.15-6.85,13.24.67,2.44,2.6,4.32,5.07,4.88,9.71,2.18,34.21,7.12,44.41,9.17Z"/>
  <path class="cls-1" d="M290.3,54.15c1.56,0,2.19-1.9,1-2.91-2.69-2.27-4.39-5.65-4.39-9.46,0-2.72.89-5.23,2.37-7.28,2.27-3.16,5.96-5.24,10.16-5.24,3.13,0,5.95,1.19,8.14,3.08.33.34.68.65,1.03.97.08.09.15.19.23.28,0-.03,0-.06,0-.09.52.46,1.04.93,1.61,1.33,4.31,3.02,9.91,4.33,15.86,2.76,6.38-1.68,11.6-6.9,13.22-13.29,3.19-12.57-6.22-23.84-18.27-23.84-3.61,0-21.24-1.21-25.71.3-6.08,1.53-10.99,5.97-13.13,11.8-.48,1.3-.79,2.67-1,4.07-.95,6.32-6.24,10.43-12.57,11.32-.04,0-.08.01-.14.02-.64-.07-1.27-.19-1.93-.19-.59,0-1.15.09-1.71.17-.29-.03-.52-.03-.55.06-9.36,1.13-16.64,9.01-16.64,18.67,0,2.66.56,5.18,1.55,7.48h40.87Z"/>
  <path class="cls-1" d="M340.43,128.51c-.09-3.99-.18-8.12-.05-12.02.12-3.59-1.92-6.87-5.24-8.24-9.52-3.95-21.69-9.12-36.18-15.37l-47.23-20.96c-27.59-12.48-52.89-24.43-75.23-35.5l-1.58-.77c-2.94-1.44-6.38-1.4-9.33.03-.13.06-.27.13-.4.19l-2.98,1.45C119.01,58.74,60.09,85.27,4.63,108.26c-2.88,1.19-4.68,3.99-4.57,7.13.15,4.43.08,9.04.02,13.51-.06,4.09-.12,8.18-.03,12.21.06,2.48,1.32,4.76,3.38,6.11,1.22.8,2.63,1.21,4.05,1.21.95,0,1.91-.18,2.82-.56,53.37-21.86,110.92-47.45,155.09-68.94,4.88-1.88,5-1.81,9.81,0,46.68,22.8,105.01,48.83,153.41,68.68,2.62,1.08,5.6.79,7.96-.75,2.39-1.56,3.86-4.21,3.93-7.09.09-3.7,0-7.48-.07-11.26Z"/>
</svg>