<?xml version="1.0" encoding="UTF-8"?>
<svg xmlns="http://www.w3.org/2000/svg" viewBox="0 0 251.97 85.39">
  <defs>
    <style>
      .cls-1 {
        fill: #ef922a;
      }
    </style>
  </defs>
  <g id="Logo">
    <g id="Centro">
      <g id="puerta">
        <g id="puerta-2" data-name="puerta">
          <path class="cls-1" d="M57.96,46.46c.05-2.31.12-4.95.2-7.26.01-.32-.07-.63-.23-.9-.08-.14-.16-.27-.27-.38-.33-.34-.78-.53-1.28-.51-2.31.05-4.62.1-6.93.12-4.5.06-9.11.06-13.7.01-2.31-.02-4.62-.05-6.93-.1-.48,0-.94.18-1.27.52-.11.11-.19.24-.27.37-.16.28-.24.59-.23.91.08,2.31.15,4.95.2,7.26.06,2.92.1,5.83.12,8.73.04,5.04.02,12.38-.07,17.28h.7c2.58-.07,5.15-.12,7.73-.15.46,0,.8,0,1.27,0h0c.06-3.18.08-8.78.08-12.05,0-1.76,0-3.51-.02-5.27.02-2.57.02-5.17.01-7.77,3.69.03,7.4.03,11.05-.01,0,2.53,0,5.05.01,7.54-.01,1.85-.02,3.69-.02,5.52,0,3.27.03,8.87.09,12.04h0c.41.02.76.02,1.16.02,2.58.03,5.15.08,7.73.14.27,0,.54,0,.81,0-.09-4.96-.11-12.37-.07-17.48.02-2.85.06-5.7.12-8.57Z"/>
        </g>
      </g>
    </g>
    <g id="Techo">
      <g id="linea_baja" data-name="linea baja">
        <path class="cls-1" d="M81.34,71.23c-7.72-.51-15.87-.87-24.23-1.08-2.58-.06-5.15-.11-7.73-.14-4.52-.05-9.11-.05-13.63,0-2.58.03-5.15.08-7.73.14-8.36.2-16.51.56-24.23,1.06h-.04c-.47.06-.83.45-.85.92-.1,2.58-.23,5.17-.36,7.75-.01.28.09.55.29.75.2.2.48.3.75.28h.22c7.71-.52,15.86-.87,24.23-1.08,2.58-.06,5.15-.11,7.73-.14,4.52-.05,9.11-.05,13.63,0,2.58.03,5.15.08,7.73.14,8.42.21,16.63.57,24.39,1.09.02,0,.04,0,.05,0,.26,0,.51-.12.7-.3.2-.2.3-.49.29-.77-.14-2.57-.26-5.14-.36-7.71-.02-.47-.38-.85-.84-.92Z"/>
      </g>
      <g id="chimenea">
        <path class="cls-1" d="M73.61,24.8c.59.12,1.14-.33,1.15-.94v-.64s0-4.26,0-4.26c0-.26-.1-.51-.29-.69s-.43-.29-.69-.29h-10.83c-2.26.02-2.06,2.04-1.71,3.31.17.61.65,1.08,1.27,1.22,2.43.55,8.55,1.78,11.1,2.29Z"/>
      </g>
      <g id="techo">
        <path class="cls-1" d="M85.12,32.13c-.02-1-.04-2.03-.01-3.01.03-.9-.48-1.72-1.31-2.06-2.38-.99-5.42-2.28-9.04-3.84l-11.81-5.24c-6.9-3.12-13.22-6.11-18.81-8.88l-.39-.19c-.74-.36-1.59-.35-2.33,0-.03.02-.07.03-.1.05l-.75.36C29.77,14.69,15.04,21.32,1.18,27.07c-.72.3-1.17,1-1.14,1.78.04,1.11.02,2.26,0,3.38-.02,1.02-.03,2.04,0,3.05.01.62.33,1.19.85,1.53.31.2.66.3,1.01.3.24,0,.48-.05.7-.14,13.34-5.47,27.73-11.86,38.77-17.24,1.22-.47,1.25-.45,2.45,0,11.67,5.7,26.25,12.21,38.35,17.17.66.27,1.4.2,1.99-.19.6-.39.97-1.05.98-1.77.02-.92,0-1.87-.02-2.82Z"/>
      </g>
      <g id="nube">
        <path class="cls-1" d="M72.59,13.54c.39,0,.55-.48.25-.73-.67-.57-1.1-1.41-1.1-2.36,0-.68.22-1.31.59-1.82.57-.79,1.49-1.31,2.54-1.31.78,0,1.49.3,2.04.77.08.09.17.16.26.24.02.02.04.05.06.07,0,0,0-.02,0-.02.13.12.26.23.4.33,1.08.76,2.48,1.08,3.96.69,1.59-.42,2.9-1.72,3.3-3.32.8-3.14-1.56-5.96-4.57-5.96-.9,0-5.31-.3-6.43.07-1.52.38-2.75,1.49-3.28,2.95-.12.33-.2.67-.25,1.02-.24,1.58-1.56,2.61-3.14,2.83-.01,0-.02,0-.03,0-.16-.02-.32-.05-.48-.05-.15,0-.29.02-.43.04-.07,0-.13,0-.14.01-2.34.28-4.16,2.25-4.16,4.67,0,.66.14,1.3.39,1.87h10.22Z"/>
      </g>
    </g>
  </g>
  <g id="Completo_Naranja">
    <g id="letras">
      <g id="sueños">
        <g>
          <path class="cls-1" d="M105.95,54.69c-.47,0-.85-.38-.85-.85v-3.75c0-2.63-.23-3.05-2.3-3.05s-2.3.42-2.3,3.05v3.66c0,1.5.19,2.02,1.41,2.77,1.03.66,2.96,1.5,5.07,2.82,3.19,1.97,3.57,2.96,3.57,7.09v5.96c0,6.86-1.31,7.84-7.7,7.84s-7.56-.89-7.56-7.84v-6.52c0-.47.38-.85.85-.85h3.56c.47,0,.85.38.85.85v6.52c0,2.58.28,3.05,2.25,3.05s2.3-.47,2.3-3.05v-5.59c0-1.97-.09-2.63-1.27-3.43-1.27-.89-3.99-2.21-5.78-3.38-2.63-1.74-2.96-2.86-2.96-6.34v-3.57c0-6.9,1.27-7.89,7.61-7.89s7.66.99,7.66,7.89v3.75c0,.47-.38.85-.85.85h-3.56Z"/>
          <path class="cls-1" d="M114.21,72.39v-28.88c0-.47.38-.85.85-.85h3.7c.47,0,.85.38.85.85v28.88c0,2.58.38,3.01,2.3,3.01s2.3-.42,2.3-3.01v-28.88c0-.47.38-.85.85-.85h3.56c.47,0,.85.38.85.85v28.88c0,6.9-1.41,7.84-7.61,7.84s-7.66-.94-7.66-7.84Z"/>
          <path class="cls-1" d="M143.37,79.77h-8.91c-.47,0-.85-.38-.85-.85v-35.4c0-.47.38-.85.85-.85h8.87c.47,0,.85.38.85.85v2.76c0,.47-.38.85-.85.85h-3.47c-.47,0-.85.38-.85.85v3.7c0,.47.38.85.85.85h3.32c.47,0,.85.38.85.85v2.57c0,.47-.38.85-.85.85h-3.32c-.47,0-.85.38-.85.85v16.62c0,.47.38.85.85.85h3.51c.47,0,.85.38.85.85v2.95c0,.47-.38.85-.85.85Z"/>
          <path class="cls-1" d="M158.74,79.77c-.39,0-.73-.27-.83-.65l-5.43-22.5h-.19v22.3c0,.47-.38.85-.85.85h-2.95c-.47,0-.85-.38-.85-.85v-35.4c0-.47.38-.85.85-.85h4.43c.4,0,.74.28.83.66l5.2,23.15h.19v-22.96c0-.47.38-.85.85-.85h3c.47,0,.85.38.85.85v35.4c0,.47-.38.85-.85.85h-4.26ZM145.04,40.15v-.84c0-.25.11-.48.3-.65.81-.7,2.29-1.77,3.82-1.78,2.4-.02,4.65,1.46,7.14,1.46.83,0,1.49-.16,2.04-.47s1.25.1,1.25.74v1.07c0,.22-.08.45-.24.6-.71.66-1.75,1.11-3.09,1.11-2.54,0-4.65-1.53-7.14-1.55-1.1,0-1.99.41-2.68.96-.56.45-1.39.07-1.39-.65Z"/>
          <path class="cls-1" d="M183.29,72.39c0,6.9-1.36,7.84-7.75,7.84s-7.7-.94-7.7-7.84v-22.4c0-6.86,1.32-7.8,7.7-7.8s7.75.94,7.75,7.8v22.4ZM177.85,49.99c0-2.49-.33-2.96-2.25-2.96s-2.35.52-2.35,2.96v22.4c0,2.58.33,3.05,2.25,3.05,2.07,0,2.35-.56,2.35-3.05v-22.4Z"/>
          <path class="cls-1" d="M197.62,54.69c-.47,0-.85-.38-.85-.85v-3.75c0-2.63-.23-3.05-2.3-3.05s-2.3.42-2.3,3.05v3.66c0,1.5.19,2.02,1.41,2.77,1.03.66,2.96,1.5,5.07,2.82,3.19,1.97,3.57,2.96,3.57,7.09v5.96c0,6.86-1.32,7.84-7.7,7.84s-7.56-.89-7.56-7.84v-6.52c0-.47.38-.85.85-.85h3.56c.47,0,.85.38.85.85v6.52c0,2.58.28,3.05,2.25,3.05s2.3-.47,2.3-3.05v-5.59c0-1.97-.09-2.63-1.27-3.43-1.27-.89-3.99-2.21-5.78-3.38-2.63-1.74-2.96-2.86-2.96-6.34v-3.57c0-6.9,1.27-7.89,7.61-7.89s7.66.99,7.66,7.89v3.75c0,.47-.38.85-.85.85h-3.56Z"/>
        </g>
      </g>
      <g id="casa">
        <path class="cls-1" d="M102.35,5.37c-5.28,0-6.61.83-6.61,6.59v18.95c0,5.8,1.13,6.63,6.61,6.63,5.2,0,6.4-.75,6.4-6.63v-6.42c0-.47-.38-.85-.85-.85h-2.77c-.47,0-.85.38-.85.85v6.42c0,2.18-.28,2.58-1.93,2.58s-1.97-.4-1.97-2.58V11.96c0-2.07.28-2.5,1.97-2.5s1.93.4,1.93,2.5v6.26c0,.47.38.85.85.85h2.77c.47,0,.85-.38.85-.85v-6.26c0-5.8-1.21-6.59-6.4-6.59Z"/>
        <path class="cls-1" d="M118.3,5.37c-5.16,0-6.36.83-6.36,6.59v24.33c0,.47.38.85.85.85h2.81c.47,0,.85-.38.85-.85v-5.29c0-.47.38-.85.85-.85h2.21c.47,0,.85.38.85.85v5.29c0,.47.38.85.85.85h2.93c.47,0,.85-.38.85-.85V11.96c0-5.68-1.29-6.59-6.69-6.59ZM119.5,26.42h-2.21c-.47,0-.85-.38-.85-.85v-13.61c0-2.14.28-2.5,1.93-2.5s1.97.36,1.97,2.5v13.61c0,.47-.38.85-.85.85Z"/>
        <path class="cls-1" d="M138.28,19.87c-1.81-1.11-3.46-1.83-4.35-2.38-1.05-.64-1.21-1.07-1.21-2.34v-3.1c0-2.22.2-2.58,1.97-2.58s1.97.36,1.97,2.58v3.04c0,.47.38.85.85.85h2.81c.47,0,.85-.38.85-.85v-3.04c0-5.84-1.13-6.67-6.57-6.67s-6.53.83-6.53,6.67v3.02c0,2.94.28,3.89,2.54,5.36,1.53.99,3.87,2.11,4.96,2.86,1.01.68,1.09,1.23,1.09,2.9v4.73c0,2.18-.24,2.58-1.97,2.58s-1.93-.4-1.93-2.58v-5.39c0-.47-.38-.85-.85-.85h-2.81c-.47,0-.85.38-.85.85v5.39c0,5.88,1.25,6.63,6.49,6.63s6.61-.83,6.61-6.63v-5.04c0-3.5-.32-4.33-3.06-6Z"/>
        <path class="cls-1" d="M148.91,33.67v-2.66c0-.47.38-.85.85-.85h2.21c.47,0,.85.38.85.85v2.93c0,.38.25.7.62.81.25.07.5.15.75.23.46.14,1.45.39,2.23.58.53.13,1.05-.27,1.05-.82V11.96c-.01-5.68-1.3-6.59-6.7-6.59s-6.36.83-6.36,6.59v24.26c.03.5.56.39.72.25.74-.65,1.88-1.5,3.21-1.95.36-.12.58-.48.58-.85ZM148.91,11.96c0-2.14.28-2.5,1.93-2.5s1.97.36,1.97,2.5v14.45c0,.47-.38.85-.85.85h-2.21c-.47,0-.85-.38-.85-.85v-14.45Z"/>
      </g>
      <g id="de">
        <path class="cls-1" d="M169.41,34.72c0,2.99-.61,3.43-3.5,3.43h-2.63c-.47,0-.85-.38-.85-.85v-15.04c0-.47.38-.85.85-.85h2.63c2.88,0,3.5.42,3.5,3.41v9.9ZM166.95,24.82c0-1.1-.15-1.29-1.04-1.29h-1.04v12.53h1.04c.89,0,1.04-.21,1.04-1.33v-9.9Z"/>
        <path class="cls-1" d="M175,38.15h-3.09c-.47,0-.85-.38-.85-.85v-15.04c0-.47.38-.85.85-.85h3.07c.47,0,.85.38.85.85v.31c0,.47-.38.85-.85.85h-.63c-.47,0-.85.38-.85.85v.74c0,.47.38.85.85.85h.57c.47,0,.85.38.85.85v.23c0,.47-.38.85-.85.85h-.57c-.47,0-.85.38-.85.85v6.56c0,.47.38.85.85.85h.65c.47,0,.85.38.85.85v.4c0,.47-.38.85-.85.85Z"/>
      </g>
      <g id="los">
        <path class="cls-1" d="M184.94,39.15h-3.24c-.47,0-.85-.38-.85-.85v-15.04c0-.47.38-.85.85-.85h.74c.47,0,.85.38.85.85v12.92c0,.47.38.85.85.85h.8c.47,0,.85.38.85.85v.42c0,.47-.38.85-.85.85Z"/>
        <path class="cls-1" d="M193.69,35.83c0,3.12-.61,3.54-3.5,3.54s-3.48-.42-3.48-3.54v-10.11c0-3.09.59-3.52,3.48-3.52s3.5.42,3.5,3.52v10.11ZM191.24,25.72c0-1.12-.15-1.33-1.02-1.33s-1.06.23-1.06,1.33v10.11c0,1.17.15,1.38,1.02,1.38.93,0,1.06-.25,1.06-1.38v-10.11Z"/>
        <path class="cls-1" d="M200.5,27.83c-.47,0-.85-.38-.85-.85v-1.23c0-1.19-.11-1.38-1.04-1.38s-1.04.19-1.04,1.38v1.65c0,.68.08.91.64,1.25.47.3,1.33.68,2.29,1.27,1.44.89,1.61,1.34,1.61,3.2v2.69c0,3.09-.59,3.54-3.48,3.54s-3.41-.4-3.41-3.54v-2.48c0-.47.38-.85.85-.85h.67c.47,0,.85.38.85.85v2.48c0,1.17.13,1.38,1.02,1.38s1.04-.21,1.04-1.38v-2.52c0-.89-.04-1.19-.57-1.55-.57-.4-1.8-1-2.61-1.53-1.19-.78-1.33-1.29-1.33-2.86v-1.61c0-3.12.57-3.56,3.43-3.56s3.46.45,3.46,3.56v1.23c0,.47-.38.85-.85.85h-.67Z"/>
      </g>
    </g>
  </g>
</svg>