<?xml version="1.0" encoding="UTF-8"?>
<svg id="Capa_2" data-name="Capa 2" xmlns="http://www.w3.org/2000/svg" viewBox="0 0 340.54 323.7">
  <defs>
    <style>
      .cls-1 {
        fill: none;
      }

      .cls-2 {
        fill: #006cb5;
      }

      .cls-3 {
        fill: #b5d273;
      }
    </style>
  </defs>
  <path class="cls-2" d="M294.37,99.2c2.37.48,4.58-1.33,4.59-3.75v-2.57s.02-17.05.02-17.05c0-1.04-.41-2.03-1.15-2.77s-1.73-1.15-2.77-1.15h-43.32c-9.05.07-8.25,8.15-6.85,13.24.67,2.44,2.6,4.32,5.07,4.88,9.71,2.18,34.21,7.12,44.41,9.17Z"/>
  <path class="cls-2" d="M340.43,128.51c-.09-3.99-.18-8.12-.05-12.02.12-3.59-1.92-6.87-5.24-8.24-9.52-3.95-21.69-9.12-36.18-15.37l-47.23-20.96c-27.59-12.48-52.89-24.43-75.23-35.5l-1.58-.77c-2.94-1.44-6.38-1.4-9.33.03-.13.06-.27.13-.4.19l-2.98,1.45C119.01,58.74,60.09,85.27,4.63,108.26c-2.88,1.19-4.68,3.99-4.57,7.13.15,4.43.08,9.04.02,13.51-.06,4.09-.12,8.18-.03,12.21.06,2.48,1.32,4.76,3.38,6.11,1.22.8,2.63,1.21,4.05,1.21.95,0,1.91-.18,2.82-.56,53.37-21.86,110.92-47.45,155.09-68.94,4.88-1.88,5-1.81,9.81,0,46.68,22.8,105.01,48.83,153.41,68.68,2.62,1.08,5.6.79,7.96-.75,2.39-1.56,3.86-4.21,3.93-7.09.09-3.7,0-7.48-.07-11.26Z"/>
  <path class="cls-2" d="M290.3,54.15c1.56,0,2.19-1.9,1-2.91-2.69-2.27-4.39-5.65-4.39-9.46,0-2.72.89-5.23,2.37-7.28,2.27-3.16,5.96-5.24,10.16-5.24,3.13,0,5.95,1.19,8.14,3.08.33.34.68.65,1.03.97.08.09.15.19.23.28,0-.03,0-.06,0-.09.52.46,1.04.93,1.61,1.33,4.31,3.02,9.91,4.33,15.86,2.76,6.38-1.68,11.6-6.9,13.22-13.29,3.19-12.57-6.22-23.84-18.27-23.84-3.61,0-21.24-1.21-25.71.3-6.08,1.53-10.99,5.97-13.13,11.8-.48,1.3-.79,2.67-1,4.07-.95,6.32-6.24,10.43-12.57,11.32-.04,0-.08.01-.14.02-.64-.07-1.27-.19-1.93-.19-.59,0-1.15.09-1.71.17-.29-.03-.52-.03-.55.06-9.36,1.13-16.64,9.01-16.64,18.67,0,2.66.56,5.18,1.55,7.48h40.87Z"/>
  <path class="cls-1" d="M216.05,296.13c-.26,0-.51,0-.78,0,.27,0,.52,0,.78,0Z"/>
  <path class="cls-1" d="M210.4,296.12c-.32,0-.63,0-.96,0,.32,0,.64,0,.96,0Z"/>
  <path class="cls-1" d="M203.75,296.11c-.31,0-.62,0-.93,0,.31,0,.62,0,.93,0Z"/>
  <path class="cls-1" d="M185.51,296.11c-.07,0-.17,0-.23,0,.07,0,.16,0,.23,0Z"/>
  <path class="cls-1" d="M221.47,296.14c-.14,0-.31,0-.47,0,.16,0,.34,0,.47,0Z"/>
  <path class="cls-1" d="M191.15,296.11h-.39c.13,0,.25,0,.39,0Z"/>
  <path class="cls-1" d="M187.16,296.11c-.32,0-.6,0-.86,0,.26,0,.55,0,.86,0Z"/>
  <path class="cls-1" d="M222.21,296.14c.33,0,.62-.11.93-.18-.32.07-.62.18-.96.18h.03Z"/>
  <path class="cls-1" d="M224.69,295.29c-.27.19-.52.4-.83.53.31-.12.56-.34.83-.53Z"/>
  <path class="cls-1" d="M225.86,294.07c-.19.31-.37.63-.63.87.26-.25.44-.57.63-.87Z"/>
  <path class="cls-1" d="M226.55,292c-.02.58-.15,1.13-.38,1.63.23-.5.36-1.05.38-1.63Z"/>
  <path class="cls-1" d="M188.1,296.11c.26,0,.51,0,.8,0-.29,0-.53,0-.8,0Z"/>
  <path class="cls-1" d="M183.75,295.97c.25.04.48.14.74.14h.02c-.27,0-.51-.1-.76-.14,0,0,0,0,0,0Z"/>
  <g>
    <ellipse class="cls-2" cx="150.03" cy="138.24" rx="25.87" ry="25.36"/>
    <path class="cls-2" d="M172.14,284.18c-2.09-21.8-16.63-57.18,1.85-73.26,15.74-13.7,3.81-9.96,3.63-30.88-97.05-22.92-68.05,49.71-61.34,107.68-.19,12.31,52.94,3.51,60.99,6.06-3.01-2.15-5.02-5.6-5.12-9.6Z"/>
    <path class="cls-2" d="M240.24,231.34c-2.92-17.04-21.92-16.28-35.31-15.67-38.49-1.92-18.92,61.78-14.94,79.59,13.11,1.57,29.41,1.58,42.69.03,6.09-15.74,8.12-44.74,7.55-63.96Z"/>
    <path class="cls-2" d="M197.46,199.94c3.26,4.03,8.24,6.67,13.89,6.67,9.82,0,17.79-7.81,17.79-17.44s-7.96-17.44-17.79-17.44-17.79,7.81-17.79,17.44c0,2.47.54,4.82,1.49,6.95.62,1.39,1.46,2.65,2.41,3.82Z"/>
  </g>
  <path class="cls-2" d="M182.83,295.79c-.31-.12-.56-.34-.83-.53.27.19.52.41.83.53Z"/>
  <path class="cls-2" d="M180.51,293.6c-.23-.5-.36-1.05-.38-1.62.02.58.15,1.13.38,1.62Z"/>
  <path class="cls-2" d="M181.46,294.91c-.25-.24-.42-.56-.61-.85.19.3.36.61.61.85Z"/>
  <path class="cls-2" d="M183.51,295.92c.08.02.16.03.24.05,0,0,0,0,0,0-.08-.01-.16-.03-.24-.04Z"/>
  <path class="cls-3" d="M225.23,294.94c-.16.15-.37.23-.55.35.18-.12.39-.2.55-.35Z"/>
  <path class="cls-3" d="M226.18,293.62c-.08.17-.22.29-.32.44.1-.15.24-.27.32-.44Z"/>
  <path class="cls-3" d="M188.9,296.11c.58,0,1.21,0,1.87,0-.6,0-1.18,0-1.71,0h-.16Z"/>
  <path class="cls-3" d="M209.45,296.12c-1.84,0-3.76,0-5.69,0,1.93,0,3.85,0,5.69,0Z"/>
  <path class="cls-3" d="M188.1,296.11c-.33,0-.65,0-.94,0,.29,0,.61,0,.94,0Z"/>
  <path class="cls-3" d="M202.82,296.11c-4.2,0-8.36,0-11.67,0,3.31,0,7.47,0,11.67,0Z"/>
  <path class="cls-3" d="M186.3,296.11c-.3,0-.55,0-.78,0,.22,0,.5,0,.78,0Z"/>
  <path class="cls-3" d="M185.28,296.11c-.35,0-.63,0-.77,0,.15,0,.41,0,.77,0Z"/>
  <path class="cls-3" d="M215.27,296.13c-1.48,0-3.13,0-4.87,0,1.74,0,3.39,0,4.87,0Z"/>
  <path class="cls-3" d="M223.86,295.82c-.22.09-.48.09-.72.14.24-.05.5-.05.72-.14Z"/>
  <path class="cls-3" d="M222.17,296.14c-.14,0-.39,0-.7,0,.31,0,.57,0,.7,0Z"/>
  <path class="cls-3" d="M221,296.14c-.74,0-1.76,0-3.02,0,1.27,0,2.27,0,3.02,0Z"/>
  <path class="cls-3" d="M217.97,296.13c-.59,0-1.23,0-1.92,0,.67,0,1.33,0,1.92,0Z"/>
  <path class="cls-3" d="M183.51,295.92c-.22-.05-.47-.05-.68-.13.21.08.46.08.68.13Z"/>
  <path class="cls-3" d="M182,295.26c-.18-.12-.39-.2-.54-.35.16.15.37.23.54.35Z"/>
  <path class="cls-3" d="M180.84,294.06c-.1-.16-.25-.29-.33-.46.08.17.23.3.33.46Z"/>
  <path class="cls-2" d="M328.65,288.58c-.08-1.9-1.52-3.41-3.37-3.67-30.87-2.03-63.47-3.48-96.92-4.31-10.31-.25-20.62-.45-30.92-.58-18.09-.21-36.44-.21-54.54-.02-10.31.12-20.62.31-30.92.56-33.45.81-66.06,2.24-96.91,4.25h-.17c-1.87.26-3.34,1.78-3.41,3.69-.42,10.34-.9,20.67-1.46,31-.06,1.12.36,2.2,1.16,2.99.8.79,1.91,1.2,3,1.12l.88-.06c30.85-2.01,63.46-3.44,96.91-4.25,10.31-.25,20.62-.45,30.92-.56,18.09-.2,36.45-.19,54.54.02,10.31.12,20.62.32,30.92.58,33.68.83,66.51,2.3,97.57,4.35.07,0,.15,0,.22,0,1.04,0,2.04-.48,2.79-1.21.8-.79,1.22-1.96,1.16-3.08-.55-10.27-1.03-20.55-1.45-30.83Z"/>
</svg>