<?xml version="1.0" encoding="UTF-8"?>
<svg id="Logo" xmlns="http://www.w3.org/2000/svg" viewBox="0 0 251.97 85.39">
  <defs>
    <style>
      .cls-1 {
        fill: #ef922a;
      }
    </style>
  </defs>
  <g id="Centro">
    <g id="puerta">
      <g id="puerta-2" data-name="puerta">
        <path class="cls-1" d="M57.96,46.46c.05-2.31.12-4.95.2-7.26.01-.32-.07-.63-.23-.9-.08-.14-.16-.27-.27-.38-.33-.34-.78-.53-1.28-.51-2.31.05-4.62.1-6.93.12-4.5.06-9.11.06-13.7.01-2.31-.02-4.62-.05-6.93-.1-.48,0-.94.18-1.27.52-.11.11-.19.24-.27.37-.16.28-.24.59-.23.91.08,2.31.15,4.95.2,7.26.06,2.92.1,5.83.12,8.73.04,5.04.02,12.38-.07,17.28h.7c2.58-.07,5.15-.12,7.73-.15.46,0,.8,0,1.27,0h0c.06-3.18.08-8.78.08-12.05,0-1.76,0-3.51-.02-5.27.02-2.57.02-5.17.01-7.77,3.69.03,7.4.03,11.05-.01,0,2.53,0,5.05.01,7.54-.01,1.85-.02,3.69-.02,5.52,0,3.27.03,8.87.09,12.04h0c.41.02.76.02,1.16.02,2.58.03,5.15.08,7.73.14.27,0,.54,0,.81,0-.09-4.96-.11-12.37-.07-17.48.02-2.85.06-5.7.12-8.57Z"/>
      </g>
    </g>
  </g>
  <g id="Techo">
    <g id="linea_baja" data-name="linea baja">
      <path class="cls-1" d="M81.34,71.23c-7.72-.51-15.87-.87-24.23-1.08-2.58-.06-5.15-.11-7.73-.14-4.52-.05-9.11-.05-13.63,0-2.58.03-5.15.08-7.73.14-8.36.2-16.51.56-24.23,1.06h-.04c-.47.06-.83.45-.85.92-.1,2.58-.23,5.17-.36,7.75-.01.28.09.55.29.75.2.2.48.3.75.28h.22c7.71-.52,15.86-.87,24.23-1.08,2.58-.06,5.15-.11,7.73-.14,4.52-.05,9.11-.05,13.63,0,2.58.03,5.15.08,7.73.14,8.42.21,16.63.57,24.39,1.09.02,0,.04,0,.05,0,.26,0,.51-.12.7-.3.2-.2.3-.49.29-.77-.14-2.57-.26-5.14-.36-7.71-.02-.47-.38-.85-.84-.92Z"/>
    </g>
    <g id="chimenea">
      <path class="cls-1" d="M73.61,24.8c.59.12,1.14-.33,1.15-.94v-.64s0-4.26,0-4.26c0-.26-.1-.51-.29-.69s-.43-.29-.69-.29h-10.83c-2.26.02-2.06,2.04-1.71,3.31.17.61.65,1.08,1.27,1.22,2.43.55,8.55,1.78,11.1,2.29Z"/>
    </g>
    <g id="techo">
      <path class="cls-1" d="M85.12,32.13c-.02-1-.04-2.03-.01-3.01.03-.9-.48-1.72-1.31-2.06-2.38-.99-5.42-2.28-9.04-3.84l-11.81-5.24c-6.9-3.12-13.22-6.11-18.81-8.88l-.39-.19c-.74-.36-1.59-.35-2.33,0-.03.02-.07.03-.1.05l-.75.36C29.77,14.69,15.04,21.32,1.18,27.07c-.72.3-1.17,1-1.14,1.78.04,1.11.02,2.26,0,3.38-.02,1.02-.03,2.04,0,3.05.01.62.33,1.19.85,1.53.31.2.66.3,1.01.3.24,0,.48-.05.7-.14,13.34-5.47,27.73-11.86,38.77-17.24,1.22-.47,1.25-.45,2.45,0,11.67,5.7,26.25,12.21,38.35,17.17.66.27,1.4.2,1.99-.19.6-.39.97-1.05.98-1.77.02-.92,0-1.87-.02-2.82Z"/>
    </g>
    <g id="nube">
      <path class="cls-1" d="M72.59,13.54c.39,0,.55-.48.25-.73-.67-.57-1.1-1.41-1.1-2.36,0-.68.22-1.31.59-1.82.57-.79,1.49-1.31,2.54-1.31.78,0,1.49.3,2.04.77.08.09.17.16.26.24.02.02.04.05.06.07,0,0,0-.02,0-.02.13.12.26.23.4.33,1.08.76,2.48,1.08,3.96.69,1.59-.42,2.9-1.72,3.3-3.32.8-3.14-1.56-5.96-4.57-5.96-.9,0-5.31-.3-6.43.07-1.52.38-2.75,1.49-3.28,2.95-.12.33-.2.67-.25,1.02-.24,1.58-1.56,2.61-3.14,2.83-.01,0-.02,0-.03,0-.16-.02-.32-.05-.48-.05-.15,0-.29.02-.43.04-.07,0-.13,0-.14.01-2.34.28-4.16,2.25-4.16,4.67,0,.66.14,1.3.39,1.87h10.22Z"/>
    </g>
  </g>
</svg>